<?xml version="1.0" encoding="UTF-8" standalone="no"?>
<!DOCTYPE svg PUBLIC "-//W3C//DTD SVG 1.1//EN" "http://www.w3.org/Graphics/SVG/1.1/DTD/svg11.dtd">
<svg version="1.1" xmlns="http://www.w3.org/2000/svg" xmlns:xlink="http://www.w3.org/1999/xlink" preserveAspectRatio="xMidYMid meet" viewBox="0 0 263 64" width="263" height="64"><defs><path d="M144.11 -0.25C146.73 -0.25 148.86 1.87 148.86 4.49C148.86 16.4 148.86 47.36 148.86 59.26C148.86 61.88 146.73 64 144.11 64C132.21 64 121.23 64 114.32 64C97.91 64 84.61 50.7 84.61 34.29C84.61 27.38 84.61 35.99 84.61 28.99C84.61 12.84 97.7 -0.25 113.84 -0.25C120.85 -0.25 132.21 -0.25 144.11 -0.25Z" id="b1cht33Wa6"></path><path d="M148.86 14.32C170.25 14.32 183.62 14.32 188.97 14.32C190.41 14.32 191.58 15.49 191.58 16.93C191.58 18.02 191.58 18.72 191.58 19.82C191.58 21.24 190.43 22.39 189.01 22.39C183.66 22.39 170.27 22.39 148.86 22.39L148.86 14.32Z" id="a5XUcmaOM"></path><path d="M0 22.39L92.3 22.39L92.3 41.36L45.46 41.36L0 41.36L0 22.39Z" id="ahTeXQgtV"></path><path d="M218.83 22.39L263.37 22.39L263.37 41.36L240.76 41.36L218.83 41.36L218.83 22.39Z" id="d16t5RRQwf"></path><path d="M148.86 39.86C170.25 39.86 183.62 39.86 188.97 39.86C190.41 39.86 191.58 41.03 191.58 42.47C191.58 43.56 191.58 44.26 191.58 45.36C191.58 46.78 190.43 47.93 189.01 47.93C183.66 47.93 170.27 47.93 148.86 47.93L148.86 39.86Z" id="a3d0m4ffpX"></path><path d="M162.76 -0.25C160.14 -0.25 158.01 1.87 158.01 4.49C158.01 16.4 158.01 47.36 158.01 59.26C158.01 61.88 160.14 64 162.76 64C174.66 64 185.64 64 192.55 64C208.96 64 222.26 50.7 222.26 34.29C222.26 27.38 222.26 35.99 222.26 28.99C222.26 12.84 209.17 -0.25 193.03 -0.25C186.02 -0.25 174.66 -0.25 162.76 -0.25Z" id="c1VBE93Cgr"></path></defs><g><g><g><use xlink:href="#b1cht33Wa6" opacity="1" fill="#444444" fill-opacity="1"></use></g><g><use xlink:href="#a5XUcmaOM" opacity="1" fill="#e1e598" fill-opacity="1"></use></g><g><use xlink:href="#ahTeXQgtV" opacity="1" fill="#444444" fill-opacity="1"></use></g><g><use xlink:href="#d16t5RRQwf" opacity="1" fill="#444444" fill-opacity="1"></use></g><g><use xlink:href="#a3d0m4ffpX" opacity="1" fill="#e1e598" fill-opacity="1"></use></g><g><use xlink:href="#c1VBE93Cgr" opacity="1" fill="#444444" fill-opacity="1"></use></g></g></g></svg>