<?xml version="1.0" encoding="UTF-8" standalone="no"?>
<!DOCTYPE svg PUBLIC "-//W3C//DTD SVG 1.1//EN" "http://www.w3.org/Graphics/SVG/1.1/DTD/svg11.dtd">
<svg version="1.1" xmlns="http://www.w3.org/2000/svg" xmlns:xlink="http://www.w3.org/1999/xlink" preserveAspectRatio="xMidYMid meet" viewBox="0 0 263 64" width="263" height="64"><defs><path d="M102.04 -0.25C104.66 -0.25 106.79 1.87 106.79 4.49C106.79 16.4 106.79 47.36 106.79 59.26C106.79 61.88 104.66 64 102.04 64C90.14 64 79.16 64 72.25 64C55.84 64 42.54 50.7 42.54 34.29C42.54 27.38 42.54 35.99 42.54 28.99C42.54 12.84 55.63 -0.25 71.77 -0.25C78.77 -0.25 90.14 -0.25 102.04 -0.25Z" id="bD8BOOfkq"></path><path d="M106.8 14.86C128.19 14.86 141.56 14.86 146.91 14.86C148.35 14.86 149.52 16.03 149.52 17.47C149.52 18.56 149.52 19.26 149.52 20.36C149.52 21.78 148.37 22.93 146.95 22.93C141.6 22.93 128.22 22.93 106.8 22.93L106.8 14.86Z" id="c1NrBdi1KR"></path><path d="M162.76 -0.25C160.14 -0.25 158.01 1.87 158.01 4.49C158.01 16.4 158.01 47.36 158.01 59.26C158.01 61.88 160.14 64 162.76 64C174.66 64 185.64 64 192.55 64C208.96 64 222.26 50.7 222.26 34.29C222.26 27.38 222.26 35.99 222.26 28.99C222.26 12.84 209.17 -0.25 193.03 -0.25C186.02 -0.25 174.66 -0.25 162.76 -0.25Z" id="gexxMThGm"></path><path d="M0 22.39L44.54 22.39L44.54 41.36L21.93 41.36L0 41.36L0 22.39Z" id="b2dMEeZcyy"></path><path d="M218.83 22.39L263.37 22.39L263.37 41.36L240.76 41.36L218.83 41.36L218.83 22.39Z" id="d3e3mqKPDx"></path><path d="M106.86 39.86C128.25 39.86 141.62 39.86 146.97 39.86C148.41 39.86 149.58 41.03 149.58 42.47C149.58 43.56 149.58 44.26 149.58 45.36C149.58 46.78 148.43 47.93 147.01 47.93C141.66 47.93 128.27 47.93 106.86 47.93L106.86 39.86Z" id="a30dM6P5E6"></path></defs><g><g><g><use xlink:href="#bD8BOOfkq" opacity="1" fill="#444444" fill-opacity="1"></use></g><g><use xlink:href="#c1NrBdi1KR" opacity="1" fill="#e1e598" fill-opacity="1"></use></g><g><use xlink:href="#gexxMThGm" opacity="1" fill="#444444" fill-opacity="1"></use></g><g><use xlink:href="#b2dMEeZcyy" opacity="1" fill="#444444" fill-opacity="1"></use></g><g><use xlink:href="#d3e3mqKPDx" opacity="1" fill="#444444" fill-opacity="1"></use></g><g><use xlink:href="#a30dM6P5E6" opacity="1" fill="#e1e598" fill-opacity="1"></use></g></g></g></svg>